<svg width="15" height="15" viewBox="0 0 15 15" fill="red" xmlns="http://www.w3.org/2000/svg">
<path d="M8.125 13.75H5.625C5.45924 13.75 5.30027 13.6842 5.18306 13.5669C5.06585 13.4497 5 13.2908 5 13.125V9.25H3.75C3.58424 9.25 3.42527 9.18415 3.30806 9.06694C3.19085 8.94973 3.125 8.79076 3.125 8.625V6.375C3.125 6.20924 3.19085 6.05027 3.30806 5.93306C3.42527 5.81585 3.58424 5.75 3.75 5.75H5V4.6875C5.04381 3.73522 5.46289 2.83903 6.16561 2.19487C6.86833 1.55071 7.79751 1.211 8.75 1.25H10.625C10.7908 1.25 10.9497 1.31585 11.0669 1.43306C11.1842 1.55027 11.25 1.70924 11.25 1.875V4.125C11.25 4.29076 11.1842 4.44973 11.0669 4.56694C10.9497 4.68415 10.7908 4.75 10.625 4.75H8.75V5.75H10.625C10.7215 5.74927 10.8169 5.7709 10.9036 5.81319C10.9904 5.85548 11.0661 5.91728 11.125 5.99375C11.1832 6.07137 11.2226 6.16149 11.2399 6.25695C11.2573 6.35241 11.2522 6.45061 11.225 6.54375L10.6 8.79375C10.5622 8.92894 10.48 9.04747 10.3666 9.13023C10.2532 9.213 10.1153 9.25519 9.975 9.25H8.75V13.125C8.75 13.2908 8.68415 13.4497 8.56694 13.5669C8.44973 13.6842 8.29076 13.75 8.125 13.75ZM6.25 12.5H7.5V8.625C7.5 8.45924 7.56585 8.30027 7.68306 8.18306C7.80027 8.06585 7.95924 8 8.125 8H9.525L9.8 7H8.125C7.95924 7 7.80027 6.93415 7.68306 6.81694C7.56585 6.69973 7.5 6.54076 7.5 6.375V4.6875C7.51605 4.36693 7.6548 4.06482 7.8875 3.84375C8.1202 3.62268 8.42903 3.4996 8.75 3.5H10V2.5H8.75C8.12926 2.46218 7.51864 2.67065 7.05061 3.08017C6.58259 3.48969 6.29492 4.06723 6.25 4.6875V6.375C6.25 6.54076 6.18415 6.69973 6.06694 6.81694C5.94973 6.93415 5.79076 7 5.625 7H4.375V8H5.625C5.79076 8 5.94973 8.06585 6.06694 8.18306C6.18415 8.30027 6.25 8.45924 6.25 8.625V12.5Z" fill="red"/>
</svg>
