<svg width="15" height="15" viewBox="0 0 15 15" fill="none" xmlns="http://www.w3.org/2000/svg">
	<path fill-rule="evenodd" clip-rule="evenodd" d="M7.5 1.25C5.8025 1.25 5.59 1.2575 4.92312 1.2875C4.25812 1.31812 3.80375 1.42375 3.40625 1.57813C2.98905 1.7349 2.6111 1.98083 2.29875 2.29875C1.98085 2.61111 1.73492 2.98906 1.57813 3.40625C1.42375 3.80375 1.31812 4.25812 1.2875 4.92312C1.25687 5.59 1.25 5.8025 1.25 7.5C1.25 9.1975 1.25687 9.41 1.2875 10.0769C1.31812 10.7419 1.42375 11.1962 1.57813 11.5937C1.73494 12.0109 1.98086 12.3889 2.29875 12.7013C2.61112 13.0191 2.98907 13.2651 3.40625 13.4219C3.80375 13.5763 4.25812 13.6819 4.92312 13.7125C5.59 13.7425 5.8025 13.75 7.5 13.75C9.1975 13.75 9.41 13.7425 10.0769 13.7125C10.7419 13.6819 11.1962 13.5763 11.5937 13.4219C12.0109 13.2651 12.3889 13.0192 12.7013 12.7013C13.0192 12.3889 13.2651 12.0109 13.4219 11.5937C13.5763 11.1962 13.6819 10.7419 13.7125 10.0769C13.7425 9.41 13.75 9.1975 13.75 7.5C13.75 5.8025 13.7425 5.59 13.7125 4.92312C13.6819 4.25812 13.5763 3.80375 13.4219 3.40625C13.2651 2.98906 13.0192 2.61111 12.7013 2.29875C12.3889 1.98083 12.0109 1.7349 11.5937 1.57813C11.1962 1.42375 10.7419 1.31812 10.0769 1.2875C9.41 1.2575 9.1975 1.25 7.5 1.25ZM7.5 2.37625C9.16875 2.37625 9.36625 2.3825 10.025 2.4125C10.635 2.44062 10.9656 2.54188 11.1863 2.6275C11.4775 2.74125 11.6863 2.87688 11.905 3.095C12.1238 3.31375 12.2587 3.5225 12.3725 3.81375C12.4575 4.03438 12.56 4.365 12.5875 4.97438C12.6175 5.63375 12.6237 5.83062 12.6237 7.5C12.6237 9.16875 12.6175 9.36625 12.5875 10.025C12.5594 10.635 12.4575 10.9656 12.3725 11.1863C12.2723 11.4577 12.1126 11.7033 11.905 11.905C11.6863 12.1238 11.4775 12.2587 11.1863 12.3725C10.9656 12.4575 10.635 12.56 10.0256 12.5875C9.36688 12.6175 9.16938 12.6237 7.5 12.6237C5.83125 12.6237 5.63313 12.6175 4.975 12.5875C4.365 12.5594 4.03438 12.4575 3.81375 12.3725C3.54224 12.2723 3.29664 12.1126 3.095 11.905C2.88741 11.7034 2.72766 11.4578 2.6275 11.1863C2.54188 10.9656 2.44 10.635 2.4125 10.0256C2.3825 9.36625 2.37625 9.16938 2.37625 7.5C2.37625 5.83125 2.3825 5.63375 2.4125 4.975C2.44062 4.365 2.54188 4.03438 2.6275 3.81375C2.74125 3.5225 2.87688 3.31375 3.095 3.095C3.31375 2.87625 3.5225 2.74125 3.81375 2.6275C4.03438 2.54188 4.365 2.44 4.97438 2.4125C5.63375 2.3825 5.83062 2.37625 7.5 2.37625ZM7.5 9.58313C6.94752 9.58313 6.41767 9.36365 6.02701 8.97299C5.63635 8.58233 5.41687 8.05248 5.41687 7.5C5.41687 6.94752 5.63635 6.41767 6.02701 6.02701C6.41767 5.63635 6.94752 5.41687 7.5 5.41687C8.05248 5.41687 8.58233 5.63635 8.97299 6.02701C9.36365 6.41767 9.58313 6.94752 9.58313 7.5C9.58313 8.05248 9.36365 8.58233 8.97299 8.97299C8.58233 9.36365 8.05248 9.58313 7.5 9.58313V9.58313ZM7.5 4.29062C7.07854 4.29062 6.6612 4.37364 6.27183 4.53492C5.88245 4.69621 5.52865 4.93261 5.23063 5.23063C4.93261 5.52865 4.69621 5.88245 4.53492 6.27183C4.37364 6.6612 4.29062 7.07854 4.29062 7.5C4.29062 7.92146 4.37364 8.3388 4.53492 8.72817C4.69621 9.11755 4.93261 9.47135 5.23063 9.76937C5.52865 10.0674 5.88245 10.3038 6.27183 10.4651C6.6612 10.6264 7.07854 10.7094 7.5 10.7094C8.35118 10.7094 9.1675 10.3712 9.76937 9.76937C10.3712 9.1675 10.7094 8.35118 10.7094 7.5C10.7094 6.64882 10.3712 5.8325 9.76937 5.23063C9.1675 4.62875 8.35118 4.29062 7.5 4.29062V4.29062ZM11.5863 4.16375C11.5863 4.26224 11.5669 4.35977 11.5292 4.45076C11.4915 4.54176 11.4362 4.62444 11.3666 4.69408C11.2969 4.76372 11.2143 4.81897 11.1233 4.85666C11.0323 4.89435 10.9347 4.91375 10.8362 4.91375C10.7378 4.91375 10.6402 4.89435 10.5492 4.85666C10.4582 4.81897 10.3756 4.76372 10.3059 4.69408C10.2363 4.62444 10.181 4.54176 10.1433 4.45076C10.1056 4.35977 10.0863 4.26224 10.0863 4.16375C10.0863 3.96484 10.1653 3.77407 10.3059 3.63342C10.4466 3.49277 10.6373 3.41375 10.8362 3.41375C11.0352 3.41375 11.2259 3.49277 11.3666 3.63342C11.5072 3.77407 11.5863 3.96484 11.5863 4.16375" fill="black" />
</svg>
