<svg width="15" height="15" viewBox="0 0 15 15" fill="none" xmlns="http://www.w3.org/2000/svg">
<path d="M5.31875 12.5H5.26875C4.26147 12.4912 3.26876 12.2585 2.3625 11.8188C2.19579 11.7405 2.05853 11.6108 1.97081 11.4489C1.88309 11.2869 1.84951 11.1012 1.875 10.9188C1.90271 10.7351 1.98774 10.5649 2.11794 10.4325C2.24814 10.3 2.41685 10.2121 2.6 10.1813C3.16163 10.1063 3.70192 9.91702 4.1875 9.62501C3.34447 8.9659 2.69547 8.091 2.30926 7.09302C1.92305 6.09504 1.81403 5.01117 1.99375 3.95626C2.01811 3.78917 2.08997 3.6326 2.20078 3.50517C2.31158 3.37775 2.45666 3.28485 2.61875 3.23751C2.77644 3.18799 2.94521 3.18587 3.1041 3.23143C3.26299 3.27698 3.405 3.3682 3.5125 3.49376C3.8775 3.97238 4.33618 4.37161 4.86056 4.66712C5.38494 4.96262 5.96403 5.14819 6.5625 5.21251C6.59108 4.47617 6.90752 3.78046 7.44375 3.27501C7.7115 3.01862 8.0276 2.81808 8.37363 2.68508C8.71966 2.55208 9.0887 2.48927 9.45925 2.50033C9.8298 2.51138 10.1944 2.59607 10.5319 2.74946C10.8694 2.90285 11.173 3.12187 11.425 3.39376C11.4906 3.45181 11.5722 3.4888 11.6591 3.49994C11.7461 3.51108 11.8343 3.49587 11.9125 3.45626C12.0615 3.38598 12.2275 3.35952 12.3909 3.37998C12.5544 3.40043 12.7087 3.46696 12.8358 3.57179C12.9629 3.67662 13.0576 3.81544 13.1088 3.97205C13.16 4.12865 13.1656 4.29659 13.125 4.45626C12.9808 5.05008 12.7077 5.60488 12.325 6.08126C12.2406 7.85923 11.4568 9.53175 10.1443 10.7341C8.83188 11.9365 7.09729 12.5713 5.31875 12.5V12.5ZM5.31875 11.25H5.36875C6.09541 11.275 6.81982 11.1555 7.49995 10.8984C8.18009 10.6414 8.80243 10.2518 9.33089 9.75244C9.85936 9.25305 10.2834 8.65371 10.5785 7.98919C10.8736 7.32467 11.0339 6.60818 11.05 5.88126C11.0603 5.68205 11.1425 5.49331 11.2812 5.35001C11.4337 5.15704 11.5637 4.94736 11.6687 4.72501C11.4436 4.72544 11.2209 4.67834 11.0152 4.5868C10.8095 4.49525 10.6254 4.36132 10.475 4.19376C10.3304 4.05036 10.1586 3.93725 9.96971 3.86105C9.78083 3.78486 9.57865 3.74711 9.375 3.75001C9.16931 3.74469 8.9646 3.78005 8.77261 3.85406C8.58062 3.92806 8.40514 4.03926 8.25625 4.18126C8.05536 4.37189 7.90806 4.61193 7.82909 4.87737C7.75011 5.1428 7.74224 5.42433 7.80625 5.69376L7.96875 6.40626L7.2375 6.45626C6.48818 6.51736 5.73454 6.41487 5.02876 6.15586C4.32297 5.89686 3.68192 5.48755 3.15 4.95626C3.12718 5.77901 3.333 6.59197 3.74456 7.30475C4.15611 8.01753 4.75729 8.6022 5.48125 8.99376L6.075 9.33126L5.68125 9.89376C5.25543 10.4522 4.67199 10.8702 4.00625 11.0938C4.43332 11.2008 4.87223 11.2533 5.3125 11.25H5.31875Z" fill="black"/>
</svg>
